<svg width="30" height="30" viewBox="0 0 30 30" fill="none" xmlns="http://www.w3.org/2000/svg">
<path d="M6.87498 18.75C7.96831 18.7468 9.02026 18.3317 9.82123 17.5875L17.6462 22.0587C17.3841 23.0833 17.4996 24.1679 17.9718 25.1142C18.444 26.0604 19.2412 26.805 20.2174 27.2115C21.1937 27.618 22.2837 27.6593 23.288 27.3279C24.2922 26.9964 25.1435 26.3144 25.6859 25.4066C26.2284 24.4988 26.4257 23.426 26.2419 22.3846C26.058 21.3432 25.5052 20.4028 24.6847 19.7357C23.8641 19.0685 22.8308 18.7192 21.7737 18.7517C20.7167 18.7841 19.7068 19.1962 18.9287 19.9125L11.1037 15.4412C11.1862 15.1287 11.2312 14.805 11.2387 14.4813L18.9262 10.0875C19.6665 10.761 20.6158 11.1594 21.6149 11.2159C22.6141 11.2724 23.6022 10.9836 24.4137 10.3979C25.2251 9.8122 25.8105 8.96525 26.0715 7.99915C26.3325 7.03305 26.2534 6.00657 25.8473 5.09192C25.4412 4.17727 24.7329 3.43009 23.8413 2.97574C22.9496 2.5214 21.9288 2.38752 20.9502 2.59658C19.9715 2.80563 19.0945 3.3449 18.4663 4.1239C17.8381 4.90291 17.4969 5.87426 17.5 6.875C17.505 7.235 17.5537 7.59375 17.6462 7.94125L10.5412 12C10.1292 11.3626 9.55844 10.8433 8.88501 10.4932C8.21157 10.1431 7.45865 9.97425 6.7002 10.0032C5.94176 10.0321 5.20389 10.2579 4.55909 10.6583C3.91429 11.0587 3.38475 11.6199 3.02249 12.2869C2.66023 12.9538 2.47771 13.7036 2.49288 14.4624C2.50804 15.2213 2.72036 15.9631 3.10898 16.6151C3.49759 17.267 4.04913 17.8067 4.70941 18.181C5.36969 18.5553 6.11599 18.7514 6.87498 18.75V18.75Z" fill="white"/>
</svg>
