<svg width="31" height="30" viewBox="0 0 31 30" fill="none" xmlns="http://www.w3.org/2000/svg">
<path d="M5.65887 16.875V16.25C5.65887 10.0375 10.1364 5 15.6589 5C21.1814 5 25.6589 10.0375 25.6589 16.25V16.875" stroke="#ffffff" stroke-width="1.875" stroke-linecap="round" stroke-linejoin="round"/>
<path d="M3.15887 21.7987V19.4525C3.15896 18.895 3.34538 18.3535 3.68851 17.9142C4.03163 17.4748 4.51178 17.1627 5.05262 17.0275L5.65887 16.875L7.22637 16.4825C7.33698 16.4548 7.45245 16.4526 7.56402 16.4762C7.67558 16.4998 7.7803 16.5485 7.87021 16.6186C7.96011 16.6888 8.03284 16.7785 8.08286 16.881C8.13289 16.9834 8.15888 17.096 8.15887 17.21V24.04C8.15888 24.154 8.13289 24.2666 8.08286 24.369C8.03284 24.4715 7.96011 24.5612 7.87021 24.6314C7.7803 24.7015 7.67558 24.7502 7.56402 24.7738C7.45245 24.7974 7.33698 24.7952 7.22637 24.7675L5.05137 24.2237C4.51076 24.0883 4.0309 23.7761 3.68801 23.3368C3.34513 22.8974 3.15889 22.3561 3.15887 21.7987V21.7987ZM28.1589 21.7987V19.4525C28.1588 18.895 27.9724 18.3535 27.6292 17.9142C27.2861 17.4748 26.806 17.1627 26.2651 17.0275L25.6589 16.875L24.0901 16.4825C23.9796 16.455 23.8643 16.453 23.7529 16.4767C23.6415 16.5004 23.5369 16.5491 23.4472 16.6192C23.3574 16.6894 23.2848 16.779 23.2348 16.8814C23.1849 16.9837 23.1589 17.0961 23.1589 17.21V24.04C23.1589 24.1539 23.1849 24.2663 23.2348 24.3686C23.2848 24.471 23.3574 24.5606 23.4472 24.6308C23.5369 24.7009 23.6415 24.7496 23.7529 24.7733C23.8643 24.797 23.9796 24.795 24.0901 24.7675L26.2651 24.2237C26.806 24.0886 27.2861 23.7765 27.6292 23.3371C27.9724 22.8977 28.1588 22.3562 28.1589 21.7987Z" stroke="#ffffff" stroke-width="1.875" stroke-linecap="round" stroke-linejoin="round"/>
</svg>
