<svg width="15" height="20" viewBox="0 0 21 24" fill="white" xmlns="http://www.w3.org/2000/svg">
<path d="M1.02512 9.38375L9.77512 0.63375C10.0095 0.399411 10.3274 0.267767 10.6589 0.267767C10.9903 0.267767 11.3082 0.399411 11.5426 0.63375L20.2926 9.38375C20.5271 9.61812 20.6588 9.93601 20.6589 10.2675V22.25C20.6589 22.5815 20.5272 22.8995 20.2928 23.1339C20.0583 23.3683 19.7404 23.5 19.4089 23.5H13.1589V14.75H8.15887V23.5H1.90887C1.57735 23.5 1.25941 23.3683 1.02499 23.1339C0.790571 22.8995 0.658875 22.5815 0.658875 22.25V10.2675C0.658945 9.93601 0.790688 9.61812 1.02512 9.38375V9.38375Z" fill="#ffffff"/>
</svg>
