<svg width="21" height="23" viewBox="0 0 21 23" fill="none" xmlns="http://www.w3.org/2000/svg">
<path d="M0.9375 22.4998C0.68886 22.4998 0.450403 22.4011 0.274588 22.2253C0.0987722 22.0494 0 21.811 0 21.5623V0.93734C2.78915e-05 0.77443 0.0425069 0.614339 0.12325 0.472846C0.203993 0.331353 0.320214 0.213343 0.460456 0.130447C0.600698 0.0475505 0.760121 0.00262954 0.923012 0.000111977C1.0859 -0.00240558 1.24664 0.0375672 1.38937 0.11609L20.1394 10.4286C20.2864 10.5095 20.4089 10.6284 20.4943 10.7729C20.5797 10.9173 20.6247 11.082 20.6247 11.2498C20.6247 11.4176 20.5797 11.5824 20.4943 11.7268C20.4089 11.8713 20.2864 11.9902 20.1394 12.0711L1.38937 22.3836C1.25095 22.4598 1.09551 22.4998 0.9375 22.4998Z" fill="white"/>
</svg>
