<svg width="27" height="30" viewBox="0 0 27 30" fill="none" xmlns="http://www.w3.org/2000/svg">
<g clip-path="url(#clip0_402_2)">
<path d="M17.5824 19.9554C17.5824 20.9152 17.4875 22.0145 17.2978 23.2533C16.9518 25.6529 16.6449 27.3996 16.377 28.4933C16.1315 29.4978 15.2833 30 13.8324 30C12.3815 30 11.5333 29.4978 11.2877 28.4933C11.0199 27.3996 10.7129 25.6529 10.367 23.2533C10.1772 22.0257 10.0824 20.9263 10.0824 19.9554C10.0824 18.0804 11.3324 17.1429 13.8324 17.1429C16.3324 17.1429 17.5824 18.0804 17.5824 19.9554ZM26.656 12.8571C26.656 15.5357 25.9083 17.9576 24.4127 20.1228C22.9172 22.2879 20.9641 23.8504 18.5533 24.8103C18.4641 24.8438 18.3804 24.827 18.3022 24.76C18.2241 24.6931 18.1906 24.6094 18.2018 24.5089C18.2799 23.9732 18.3357 23.6049 18.3692 23.404C18.4138 23.0469 18.4473 22.7846 18.4696 22.6172C18.4808 22.5167 18.531 22.4498 18.6203 22.4163C20.3949 21.5123 21.8206 20.2065 22.8977 18.4989C23.9747 16.7913 24.5132 14.9107 24.5132 12.8571C24.5132 10.8482 24.0054 9.00391 22.9897 7.32422C21.9741 5.64453 20.5958 4.33594 18.8547 3.39844C17.1136 2.46094 15.233 2.04799 13.2129 2.1596C11.829 2.23772 10.5065 2.57813 9.24531 3.1808C7.98415 3.78348 6.90435 4.56752 6.00591 5.53292C5.10748 6.49833 4.39319 7.62556 3.86306 8.91462C3.33292 10.2037 3.07344 11.5458 3.0846 12.9408C3.09576 14.9944 3.64821 16.8722 4.74196 18.5742C5.83571 20.2762 7.26987 21.5681 9.04442 22.4498C9.12254 22.4833 9.17277 22.5502 9.19509 22.6507C9.22857 22.885 9.26205 23.1362 9.29553 23.404C9.3067 23.5045 9.3346 23.6858 9.37924 23.9481C9.42388 24.2104 9.45737 24.4085 9.47969 24.5424C9.49085 24.6429 9.45458 24.7266 9.37087 24.7935C9.28716 24.8605 9.20067 24.8717 9.11138 24.827C7.4596 24.1797 6.00312 23.2338 4.74196 21.9894C3.4808 20.745 2.51261 19.2718 1.83739 17.5698C1.16216 15.8677 0.869196 14.0848 0.958482 12.221C1.03661 10.625 1.40491 9.09877 2.06339 7.6423C2.72187 6.18583 3.58404 4.91909 4.64989 3.84208C5.71574 2.76507 6.97132 1.88616 8.41663 1.20536C9.86194 0.524554 11.3826 0.133929 12.9786 0.033483C14.8089 -0.0781242 16.5695 0.181362 18.2604 0.811943C19.9512 1.44252 21.4077 2.33817 22.6298 3.49888C23.8519 4.6596 24.8285 6.05748 25.5595 7.69252C26.2905 9.32757 26.656 11.0491 26.656 12.8571ZM17.5824 12.3214C17.5824 13.3594 17.2169 14.2439 16.4858 14.9749C15.7548 15.7059 14.8703 16.0714 13.8324 16.0714C12.7944 16.0714 11.9099 15.7059 11.1789 14.9749C10.4479 14.2439 10.0824 13.3594 10.0824 12.3214C10.0824 11.2835 10.4479 10.399 11.1789 9.66797C11.9099 8.93694 12.7944 8.57143 13.8324 8.57143C14.8703 8.57143 15.7548 8.93694 16.4858 9.66797C17.2169 10.399 17.5824 11.2835 17.5824 12.3214ZM22.4038 12.8571C22.4038 14.2188 22.1052 15.4939 21.5081 16.6825C20.911 17.8711 20.0935 18.8616 19.0556 19.654C18.9663 19.721 18.877 19.7321 18.7877 19.6875C18.6984 19.6429 18.6426 19.5647 18.6203 19.4531C18.5533 18.8728 18.3915 18.3594 18.1348 17.9129C18.0567 17.8013 18.0734 17.6897 18.185 17.5781C18.8324 16.9754 19.3402 16.2667 19.7085 15.452C20.0768 14.6373 20.2609 13.7723 20.2609 12.8571C20.2609 11.6183 19.9345 10.4799 19.2816 9.44197C18.6287 8.40402 17.7498 7.6144 16.6449 7.0731C15.54 6.53181 14.3569 6.32813 13.0958 6.46205C11.6114 6.62946 10.3335 7.26005 9.26205 8.3538C8.19062 9.44755 7.58237 10.7366 7.43728 12.221C7.32567 13.2478 7.45681 14.2299 7.83069 15.1674C8.20458 16.1049 8.75424 16.9085 9.47969 17.5781C9.59129 17.6897 9.60804 17.8013 9.52991 17.9129C9.26205 18.3705 9.10022 18.8895 9.04442 19.4699C9.0221 19.5703 8.96629 19.6429 8.87701 19.6875C8.78772 19.7321 8.69844 19.721 8.60915 19.654C7.54888 18.8281 6.7202 17.8069 6.1231 16.5904C5.526 15.3739 5.23862 14.0681 5.26094 12.673C5.29442 11.2109 5.67946 9.84933 6.41607 8.58817C7.15268 7.32701 8.1404 6.31417 9.37924 5.54967C10.6181 4.78516 11.9629 4.36942 13.4138 4.30246C15.021 4.22433 16.5165 4.55915 17.9004 5.30692C19.2844 6.05469 20.3809 7.101 21.1901 8.44587C21.9992 9.79074 22.4038 11.2612 22.4038 12.8571Z" fill="#ffffff"/>
</g>
<defs>
<clipPath id="clip0_402_2">
<rect width="25.72" height="30" fill="white" transform="translate(0.938873)"/>
</clipPath>
</defs>
</svg>
