<svg width="30" height="30" viewBox="0 0 30 30" fill="none" xmlns="http://www.w3.org/2000/svg">
<g clip-path="url(#clip0_407_8)">
<path d="M15 17.1088C16.165 17.1088 17.1094 16.1647 17.1094 15C17.1094 13.8353 16.165 12.8912 15 12.8912C13.835 12.8912 12.8906 13.8353 12.8906 15C12.8906 16.1647 13.835 17.1088 15 17.1088Z" fill="white"/>
<path d="M11.0391 20.5547L10.1824 19.5914C9.05762 18.3266 8.43628 16.6929 8.43628 15.0003C8.43628 13.3077 9.05762 11.674 10.1824 10.4092L11.0391 9.44648L12.965 11.1598L12.1084 12.1225C11.4033 12.9155 11.0138 13.9397 11.0138 15.0009C11.0138 16.062 11.4033 17.0863 12.1084 17.8793L12.965 18.8426L11.0391 20.5547ZM18.9609 20.5547L17.0338 18.8426L17.8904 17.8793C18.5955 17.0863 18.985 16.062 18.985 15.0009C18.985 13.9397 18.5955 12.9155 17.8904 12.1225L17.0338 11.1598L18.9598 9.44648L19.8164 10.4092C20.9412 11.674 21.5625 13.3077 21.5625 15.0003C21.5625 16.6929 20.9412 18.3266 19.8164 19.5914L18.9609 20.5547Z" fill="white"/>
<path d="M8.10001 23.5406L7.2211 22.5996C5.29311 20.5387 4.22049 17.8221 4.22049 15C4.22049 12.1779 5.29311 9.46126 7.2211 7.40039L8.10001 6.45879L9.98321 8.21953L9.1043 9.16055C7.62288 10.7441 6.7987 12.8315 6.7987 15C6.7987 17.1685 7.62288 19.2559 9.1043 20.8395L9.98321 21.7805L8.10001 23.5406ZM21.9 23.5406L20.0168 21.7828L20.8957 20.8418C22.3771 19.2582 23.2013 17.1708 23.2013 15.0023C23.2013 12.8339 22.3771 10.7465 20.8957 9.16289L20.0168 8.22188L21.9 6.46406L22.7789 7.40566C24.7069 9.46654 25.7795 12.1832 25.7795 15.0053C25.7795 17.8274 24.7069 20.544 22.7789 22.6049L21.9 23.5406Z" fill="white"/>
<path d="M25.2381 26.1914L23.3168 24.4729L24.1758 23.5125C26.2663 21.1698 27.4217 18.1398 27.4217 15C27.4217 11.8602 26.2663 8.83017 24.1758 6.4875L23.3162 5.52773L25.2375 3.80859L26.0971 4.76895C28.6105 7.58415 29.9997 11.2261 29.9997 15C29.9997 18.7739 28.6105 22.4158 26.0971 25.2311L25.2381 26.1914ZM4.76191 26.1914L3.90234 25.2311C1.38892 22.4158 -0.000274658 18.7739 -0.000274658 15C-0.000274658 11.2261 1.38892 7.58415 3.90234 4.76895L4.7625 3.80859L6.68379 5.52773L5.82363 6.4875C3.73312 8.83017 2.57774 11.8602 2.57774 15C2.57774 18.1398 3.73312 21.1698 5.82363 23.5125L6.68262 24.4729L4.76191 26.1914Z" fill="white"/>
</g>
<defs>
<clipPath id="clip0_407_8">
<rect width="30" height="30" fill="white"/>
</clipPath>
</defs>
</svg>
