<svg width="25" height="24" viewBox="0 0 25 24" fill="none" xmlns="http://www.w3.org/2000/svg">
<path d="M24.3073 22.0342L16.6989 14.4258C17.8796 12.8994 18.5182 11.0332 18.5182 9.07031C18.5182 6.7207 17.6013 4.51758 15.9431 2.85644C14.2848 1.19531 12.0759 0.28125 9.72919 0.28125C7.38251 0.28125 5.17352 1.19824 3.51532 2.85644C1.85419 4.51465 0.940125 6.7207 0.940125 9.07031C0.940125 11.417 1.85712 13.626 3.51532 15.2842C5.17352 16.9453 7.37958 17.8594 9.72919 17.8594C11.6921 17.8594 13.5554 17.2207 15.0817 16.043L22.6901 23.6484C22.7124 23.6708 22.7389 23.6885 22.7681 23.7005C22.7972 23.7126 22.8285 23.7189 22.86 23.7189C22.8916 23.7189 22.9229 23.7126 22.952 23.7005C22.9812 23.6885 23.0077 23.6708 23.03 23.6484L24.3073 22.374C24.3296 22.3517 24.3473 22.3252 24.3594 22.2961C24.3715 22.2669 24.3777 22.2357 24.3777 22.2041C24.3777 22.1725 24.3715 22.1413 24.3594 22.1121C24.3473 22.083 24.3296 22.0565 24.3073 22.0342V22.0342ZM14.3698 13.7109C13.1276 14.9502 11.4811 15.6328 9.72919 15.6328C7.97723 15.6328 6.33075 14.9502 5.08856 13.7109C3.8493 12.4687 3.16669 10.8223 3.16669 9.07031C3.16669 7.31836 3.8493 5.66895 5.08856 4.42969C6.33075 3.19043 7.97723 2.50781 9.72919 2.50781C11.4811 2.50781 13.1306 3.1875 14.3698 4.42969C15.6091 5.67187 16.2917 7.31836 16.2917 9.07031C16.2917 10.8223 15.6091 12.4717 14.3698 13.7109Z" fill="#545454"/>
</svg>
