<svg width="27" height="22" viewBox="0 0 27 22" fill="none" xmlns="http://www.w3.org/2000/svg">
<path d="M25.8398 16.3501C25.9709 16.4807 26.075 16.636 26.1459 16.8069C26.2169 16.9778 26.2535 17.1611 26.2535 17.3462C26.2535 17.5313 26.2169 17.7145 26.1459 17.8855C26.075 18.0564 25.9709 18.2116 25.8398 18.3423L23.0273 21.1548C22.762 21.4167 22.4041 21.5636 22.0312 21.5636C21.6584 21.5636 21.3005 21.4167 21.0352 21.1548C20.9041 21.0241 20.8 20.8689 20.7291 20.698C20.6581 20.527 20.6215 20.3438 20.6215 20.1587C20.6215 19.9736 20.6581 19.7903 20.7291 19.6194C20.8 19.4485 20.9041 19.2932 21.0352 19.1626L21.4453 18.7524H21.1992C19.7829 18.751 18.3872 18.4123 17.1279 17.7642C15.8685 17.1162 14.7815 16.1775 13.957 15.0259L9.07031 8.18213C8.50632 7.39323 7.76253 6.75002 6.90051 6.30577C6.03849 5.86151 5.08304 5.62899 4.11328 5.62744H1.40625C1.03329 5.62744 0.675604 5.47928 0.411881 5.21556C0.148158 4.95184 0 4.59415 0 4.22119C0 3.84823 0.148158 3.49054 0.411881 3.22682C0.675604 2.9631 1.03329 2.81494 1.40625 2.81494H4.11328C5.52962 2.81637 6.92526 3.15512 8.18465 3.80316C9.44404 4.45119 10.531 5.38988 11.3555 6.5415L16.2422 13.3853C16.8062 14.1741 17.55 14.8174 18.412 15.2616C19.274 15.7059 20.2295 15.9384 21.1992 15.9399H21.4453L21.0352 15.5298C20.771 15.2656 20.6226 14.9073 20.6226 14.5337C20.6226 14.1601 20.771 13.8018 21.0352 13.5376C21.2993 13.2734 21.6576 13.125 22.0312 13.125C22.4049 13.125 22.7632 13.2734 23.0273 13.5376L25.8398 16.3501ZM14.6367 7.84228C14.8913 8.06974 15.2211 8.19496 15.5625 8.19385C15.7623 8.1933 15.9598 8.15016 16.1416 8.06732C16.3235 7.98447 16.4856 7.86381 16.6172 7.71338C17.1878 7.05873 17.8919 6.53385 18.6822 6.17405C19.4726 5.81425 20.3308 5.62786 21.1992 5.62744H21.4453L21.0352 6.0376C20.9041 6.16824 20.8 6.32348 20.7291 6.49441C20.6581 6.66535 20.6215 6.84861 20.6215 7.03369C20.6215 7.21877 20.6581 7.40203 20.7291 7.57296C20.8 7.7439 20.9041 7.89914 21.0352 8.02978C21.3005 8.29171 21.6584 8.43858 22.0312 8.43858C22.4041 8.43858 22.762 8.29171 23.0273 8.02978L25.8398 5.21728C25.9709 5.08664 26.075 4.9314 26.1459 4.76047C26.2169 4.58953 26.2535 4.40627 26.2535 4.22119C26.2535 4.03611 26.2169 3.85285 26.1459 3.68191C26.075 3.51098 25.9709 3.35574 25.8398 3.2251L23.0273 0.412596C22.7632 0.148415 22.4049 -7.87319e-09 22.0312 0C21.6576 7.87319e-09 21.2993 0.148415 21.0352 0.412596C20.771 0.676776 20.6226 1.03508 20.6226 1.40869C20.6226 1.7823 20.771 2.1406 21.0352 2.40478L21.4453 2.81494H21.1992C19.9295 2.81706 18.6749 3.08992 17.519 3.61533C16.3631 4.14073 15.3326 4.90659 14.4961 5.86181C14.2527 6.14335 14.1308 6.50988 14.1572 6.88111C14.1836 7.25233 14.356 7.59796 14.6367 7.84228V7.84228ZM10.6758 13.7251C10.3957 13.4803 10.0301 13.3564 9.65893 13.3806C9.28775 13.4047 8.94126 13.575 8.69531 13.854C8.12475 14.5087 7.42061 15.0335 6.63026 15.3933C5.83991 15.7531 4.98168 15.9395 4.11328 15.9399H1.40625C1.03329 15.9399 0.675604 16.0881 0.411881 16.3518C0.148158 16.6155 0 16.9732 0 17.3462C0 17.7191 0.148158 18.0768 0.411881 18.3406C0.675604 18.6043 1.03329 18.7524 1.40625 18.7524H4.11328C5.38297 18.7503 6.63762 18.4775 7.7935 17.9521C8.94939 17.4266 9.97994 16.6608 10.8164 15.7056C11.0598 15.424 11.1817 15.0575 11.1553 14.6863C11.1289 14.315 10.9565 13.9694 10.6758 13.7251V13.7251Z" fill="white"/>
</svg>
